<svg width="16" height="16" viewBox="0 0 16 16" fill="none" xmlns="http://www.w3.org/2000/svg">
<g id="edit / show">
<g id="edit / show_2">
<path d="M7.99998 6.00001C6.90531 6.00001 5.99998 6.90601 5.99998 8.00001C5.99998 9.09468 6.90531 10 7.99998 10C9.09398 10 9.99998 9.09468 9.99998 8.00001C9.99998 6.90601 9.09398 6.00001 7.99998 6.00001Z" fill="#A6A6A6"/>
<path d="M7.99998 3.33334C2.93864 3.33334 1.41752 7.74468 1.4036 7.78934L1.33331 8.00001L1.40294 8.21068C1.41753 8.25534 2.93864 12.6667 7.99998 12.6667C13.0613 12.6667 14.5824 8.25534 14.5964 8.21068L14.6666 8.00001L14.597 7.78934C14.5824 7.74468 13.0613 3.33334 7.99998 3.33334ZM7.99998 11.3333C4.45181 11.3333 3.07723 8.76934 2.74436 8.00001C3.07856 7.22801 4.4538 4.66668 7.99998 4.66668C11.5482 4.66668 12.9227 7.23068 13.2556 8.00001C12.9214 8.77201 11.5462 11.3333 7.99998 11.3333Z" fill="#A6A6A6"/>
</g>
</g>
</svg>
